<svg xmlns="http://www.w3.org/2000/svg" viewBox="0 0 2048 2048" class="IconText-module__icon___1HVC5"><path d="M1024 640q26 0 45 19t19 45q0 26-19 45t-45 19q-26 0-45-19t-19-45q0-26 19-45t45-19zm704-164q20 14 36 35t25 45l224 607q20 55 27 121t8 124q0 55-17 111t-49 103-80 76-110 30q-22 0-48-8t-43-24l-304-304q-12-12-30-21t-40-15-42-9-37-3H800q-17 0-37 3t-42 9-39 15-31 21l-304 304q-16 16-42 24t-49 8q-62 0-109-29t-80-76-50-103-17-112q0-61 7-124t28-121l1-1 225-609v-2q9-22 24-41t35-34v-66q44-23 85-40t84-28 88-16 95-6q34 0 61 10t49 22 42 22 40 10h320q19 0 39-10t42-22 50-22 61-10q50 0 95 5t87 17 84 28 86 40v66zm64 1124q33 0 57-20t40-49 23-62 8-61q0-49-6-102t-22-101q-32-93-66-184t-70-184l-61-167q-7-17-12-35t-14-35q-5-10-12-17-11-11-27-17t-30-12v-66q-53-22-110-31t-114-9q-20 0-39 10t-42 22-50 22-61 10H864q-34 0-61-10t-49-22-43-22-39-10q-57 0-114 9t-110 31v66q-8 4-18 8t-21 9-18 12-12 17l-223 605q-16 44-22 100t-6 103q0 27 7 60t23 63 40 49 58 20q5 0 7-1l302-303q20-20 49-35t61-25 65-15 60-5h448q27 0 59 5t65 15 62 25 49 35l302 303q2 1 7 1z"></path></svg>