<svg xmlns="http://www.w3.org/2000/svg" viewBox="0 0 2048 2048" class="IconText-module__icon___1HVC5"><path d="M1600 896q40 0 75 15t61 41 41 61 15 75v384q0 119-45 224t-124 183-183 123-224 46q-144 0-268-55t-226-156l-472-472q-28-28-43-65t-15-76q0-42 16-78t43-64 63-42 78-16q82 0 141 59l107 106V853q-59-28-106-70t-80-95-52-114-18-126q0-93 35-174t96-143 142-96T832 0q93 0 174 35t143 96 96 142 35 175q0 93-37 178t-105 149q35 9 63 30t49 52q45-25 94-25 50 0 93 23t69 66q45-25 94-25zM512 448q0 75 34 143t94 113V448q0-40 15-75t41-61 61-41 75-15q40 0 75 15t61 41 41 61 15 75v256q60-45 94-113t34-143q0-66-25-124t-69-101-102-69-124-26q-66 0-124 25t-102 69-69 102-25 124zm1152 1024v-384q0-26-19-45t-45-19q-21 0-34 7t-20 21-9 31-2 37q0 16 1 32t1 32q0 20-2 37t-9 30-20 21-34 8q-21 0-34-8t-20-21-9-33-3-40q0-28 2-58t2-58q0-43-12-72t-54-30q-21 0-34 7t-20 21-9 31-2 37q0 16 1 32t1 32q0 20-2 37t-9 30-20 21-34 8q-21 0-34-8t-20-21-9-33-3-40q0-28 2-58t2-58q0-43-12-72t-54-30q-21 0-34 7t-20 21-9 31-2 37q0 16 1 32t1 32q0 20-2 37t-9 30-20 21-34 8q-26 0-45-19t-19-45V448q0-26-19-45t-45-19q-26 0-45 19t-19 45v787q0 23-8 42t-23 35-35 23-42 9q-22 0-42-8t-37-24l-139-139q-21-21-50-21t-50 21-22 51q0 29 21 50l472 473q84 84 184 128t219 45q93 0 174-35t142-96 96-142 36-175z"></path></svg>